<svg width="26" height="26" viewBox="0 0 26 26" fill="none" xmlns="http://www.w3.org/2000/svg">
<path d="M12.826 0.869873C6.04183 0.869873 0.542145 6.36956 0.542145 13.1538C0.542145 19.938 6.04183 25.4376 12.826 25.4376C19.6102 25.4376 25.1099 19.938 25.1099 13.1538C25.102 6.37283 19.607 0.87777 12.826 0.869873Z" fill="#5243C2" fill-opacity="0.15"/>
<path d="M19.917 9.26391L12.9101 18.7727C12.743 18.9944 12.4938 19.1397 12.2185 19.1758C11.9433 19.212 11.665 19.1361 11.4463 18.9651L6.44262 14.9647C6.00108 14.6113 5.92959 13.9669 6.28293 13.5254C6.63627 13.0839 7.28065 13.0124 7.72219 13.3657L11.8946 16.7039L18.2689 8.05293C18.478 7.73927 18.8424 7.56585 19.2177 7.60153C19.5929 7.63721 19.9182 7.87621 20.0643 8.22365C20.2105 8.57108 20.1539 8.97072 19.917 9.26391Z" fill="#BB6BD9"/>
</svg>
