<svg width="44" height="44" viewBox="0 0 44 44" fill="none" xmlns="http://www.w3.org/2000/svg">
<rect x="1" y="1" width="42.0003" height="42" rx="21" stroke="black" stroke-opacity="0.23" stroke-width="2"/>
<path d="M23.0006 15.6297V35.5637C23.0014 35.6955 22.9761 35.8261 22.9261 35.9481C22.8762 36.0701 22.8027 36.181 22.7098 36.2745C22.6168 36.368 22.5063 36.4421 22.3846 36.4928C22.2629 36.5434 22.1324 36.5694 22.0006 36.5694C21.8688 36.5694 21.7383 36.5434 21.6166 36.4928C21.4949 36.4421 21.3844 36.368 21.2915 36.2745C21.1985 36.181 21.125 36.0701 21.0751 35.9481C21.0252 35.8261 20.9998 35.6955 21.0006 35.5637V15.6297L13.7086 23.3776C13.6187 23.4759 13.5093 23.5543 13.3874 23.6079C13.2655 23.6616 13.1338 23.6893 13.0006 23.6893C12.8674 23.6893 12.7357 23.6616 12.6138 23.6079C12.492 23.5543 12.3826 23.4759 12.2926 23.3776C12.1044 23.1728 12 22.9048 12 22.6267C12 22.3485 12.1044 22.0805 12.2926 21.8757L21.2926 12.3117C21.3825 12.2135 21.4919 12.135 21.6138 12.0814C21.7357 12.0277 21.8674 12 22.0006 12C22.1338 12 22.2655 12.0277 22.3874 12.0814C22.5093 12.135 22.6187 12.2135 22.7086 12.3117L31.7086 21.8757C31.8962 22.0804 32.0003 22.348 32.0003 22.6257C32.0003 22.9033 31.8962 23.1709 31.7086 23.3756C31.6187 23.4739 31.5093 23.5523 31.3874 23.606C31.2655 23.6596 31.1338 23.6873 31.0006 23.6873C30.8674 23.6873 30.7357 23.6596 30.6138 23.606C30.4919 23.5523 30.3825 23.4739 30.2926 23.3756L23.0006 15.6317V15.6297Z" fill="black"/>
</svg>
